<?xml version="1.0" encoding="UTF-8" standalone="no"?>
<svg
   width="72.135612"
   height="72.13562"
   viewBox="0 0 72.135612 72.13562"
   fill="none"
   version="1.1"
   id="svg5"
   xmlns="http://www.w3.org/2000/svg"
   xmlns:svg="http://www.w3.org/2000/svg">
  <defs
     id="defs5" />
  <path
     d="m 36.067815,-2.1044922e-6 c -7.1335,0 -14.1069,2.1153400044922 -20.0382,6.0785200044922 -5.9313,3.9631801 -10.55421,9.5961801 -13.2841,16.1866901 -2.72988699,6.5906 -3.44415099,13.8426 -2.05246899,20.8391 1.39167899,6.9964 4.82680899,13.4231 9.87096899,18.4673 5.0442,5.0441 11.4708,8.4793 18.4673,9.871 6.9965,1.3916 14.2485,0.6774 20.839,-2.0525 6.5906,-2.7299 12.2236,-7.3528 16.1868,-13.2841 3.9631,-5.9313 6.0785,-12.9047 6.0785,-20.0382 h -18.0339 c 0,3.5668 -1.0577,7.0534 -3.0393,10.0191 -1.9816,2.9657 -4.7981,5.2771 -8.0933,6.642 -3.2953,1.365 -6.9213,1.7221 -10.4195,1.0263 -3.4983,-0.6959 -6.7116,-2.4134 -9.2337,-4.9355 -2.5221,-2.5221 -4.2396,-5.7354 -4.9355,-9.2337 -0.6958,-3.4982 -0.3387,-7.1242 1.0262,-10.4195 1.365,-3.2952 3.6764,-6.1118 6.6421,-8.0933 2.9657,-1.9816 6.4523,-3.0393 10.0191,-3.0393 z"
     fill="#ffffff"
     id="path3" />
  <path
     d="m 36.067815,-2.1044922e-6 c -4.7365,0 -9.4266,0.9329200044922 -13.8026,2.7455000044922 -4.3759,1.81257 -8.352,4.46931 -11.7012,7.8185001 -3.34919,3.3492 -6.00593,7.32531 -7.8185,11.70131 -1.81257999,4.3759 -2.745500988525,9.066 -2.745499988525,13.8025 H 18.033915 c 0,-2.3682 0.4665,-4.7133 1.3727,-6.9013 0.9063,-2.188 2.2347,-4.176 3.9093,-5.8506 1.6746,-1.6746 3.6626,-3.003 5.8506,-3.9093 2.188,-0.9062 4.533,-1.3727 6.9013,-1.3727 z"
     fill="#5ce1e6"
     id="path4" />
  <circle
     cx="36.067814"
     cy="36.067795"
     r="11.2712"
     fill="#5ce1e6"
     id="circle4" />
  <path
     d="m 47.339015,36.067808 c 0,-1.4801 -0.2915,-2.9458 -0.858,-4.3133 -0.5664,-1.3675 -1.3966,-2.61 -2.4433,-3.6566 -1.0466,-1.0466 -2.2891,-1.8769 -3.6566,-2.4433 -1.3675,-0.5664 -2.8331,-0.858 -4.3133,-0.858 -1.4802,0 -2.9458,0.2916 -4.3133,0.858 -1.3675,0.5664 -2.61,1.3967 -3.6566,2.4433 -1.0467,1.0466 -1.8769,2.2891 -2.4433,3.6566 -0.5664,1.3675 -0.858,2.8332 -0.858,4.3133 h 11.2712 z"
     fill="#ffffff"
     id="path5" />
</svg>
